REM DIRINDEX 1\6,1\2\7,1\2\8,1\2\9,1\3\10,1\3\11,1\4\12,1\4\13,1\4\14,1\5\15,1\5\16,1\5\17
REM DIRNAME folder01,folder02,folder03,folder04,folder05,folder06,folder07,folder08,folder09,folder10,folder11,folder12,folder13,folder14,folder15,folder16,folder17
TITLE ""
FILE "P2Q_t_0875-0892.mp3" MP3
  TRACK 01 AUDIO
    TITLE "10:cjc040_3405"
    INDEX 01 00:00:00
  TRACK 02 AUDIO
    TITLE "0:"
    INDEX 01 00:01:03
  TRACK 03 AUDIO
    TITLE "11:cjc040_3406"
    INDEX 01 00:01:64
  TRACK 04 AUDIO
    TITLE "0:"
    INDEX 01 00:04:21
  TRACK 05 AUDIO
    TITLE "10:cjc040_3407"
    INDEX 01 00:04:72
  TRACK 06 AUDIO
    TITLE "0:"
    INDEX 01 00:06:06
  TRACK 07 AUDIO
    TITLE "11:cjc040_3408"
    INDEX 01 00:06:63
  TRACK 08 AUDIO
    TITLE "0:"
    INDEX 01 00:09:06
  TRACK 09 AUDIO
    TITLE "10:cjc040_3409"
    INDEX 01 00:09:61
  TRACK 10 AUDIO
    TITLE "0:"
    INDEX 01 00:10:70
  TRACK 11 AUDIO
    TITLE "11:cjc040_3410"
    INDEX 01 00:11:50
  TRACK 12 AUDIO
    TITLE "0:"
    INDEX 01 00:12:69
  TRACK 13 AUDIO
    TITLE "10:cjc040_3411"
    INDEX 01 00:13:47
  TRACK 14 AUDIO
    TITLE "0:"
    INDEX 01 00:14:51
  TRACK 15 AUDIO
    TITLE "11:cjc040_3412"
    INDEX 01 00:15:30
  TRACK 16 AUDIO
    TITLE "0:"
    INDEX 01 00:16:32
  TRACK 17 AUDIO
    TITLE "10:cjc040_3413"
    INDEX 01 00:17:14
  TRACK 18 AUDIO
    TITLE "0:"
    INDEX 01 00:18:11
  TRACK 19 AUDIO
    TITLE "11:cjc040_3414"
    INDEX 01 00:18:68
  TRACK 20 AUDIO
    TITLE "0:"
    INDEX 01 00:19:65
  TRACK 21 AUDIO
    TITLE "10:cjc040_3415"
    INDEX 01 00:20:39
  TRACK 22 AUDIO
    TITLE "0:"
    INDEX 01 00:21:51
  TRACK 23 AUDIO
    TITLE "11:cjc040_3416"
    INDEX 01 00:22:32
  TRACK 24 AUDIO
    TITLE "0:"
    INDEX 01 00:23:20
  TRACK 25 AUDIO
    TITLE "10:cjc040_3417"
    INDEX 01 00:24:00
  TRACK 26 AUDIO
    TITLE "0:"
    INDEX 01 00:25:17
  TRACK 27 AUDIO
    TITLE "11:cjc040_3418"
    INDEX 01 00:25:74
  TRACK 28 AUDIO
    TITLE "0:"
    INDEX 01 00:28:08
  TRACK 29 AUDIO
    TITLE "10:cjc040_3419"
    INDEX 01 00:28:66
  TRACK 30 AUDIO
    TITLE "0:"
    INDEX 01 00:30:24
  TRACK 31 AUDIO
    TITLE "11:cjc040_3420"
    INDEX 01 00:31:04
  TRACK 32 AUDIO
    TITLE "0:"
    INDEX 01 00:32:09
  TRACK 33 AUDIO
    TITLE "10:cjc040_3421"
    INDEX 01 00:32:68
  TRACK 34 AUDIO
    TITLE "0:"
    INDEX 01 00:34:02
  TRACK 35 AUDIO
    TITLE "11:cjc040_3422"
    INDEX 01 00:34:53
  TRACK 36 AUDIO
    TITLE "0:"
    INDEX 01 00:35:57
  TRACK 37 AUDIO
    TITLE "10:cjc040_3423"
    INDEX 01 00:36:36
  TRACK 38 AUDIO
    TITLE "0:"
    INDEX 01 00:37:54
  TRACK 39 AUDIO
    TITLE "11:cjc040_3424"
    INDEX 01 00:38:30
  TRACK 40 AUDIO
    TITLE "0:"
    INDEX 01 00:40:36
  TRACK 41 AUDIO
    TITLE "10:cjc040_3425"
    INDEX 01 00:41:04
  TRACK 42 AUDIO
    TITLE "0:"
    INDEX 01 00:42:39
  TRACK 43 AUDIO
    TITLE "11:cjc040_3426"
    INDEX 01 00:43:25
  TRACK 44 AUDIO
    TITLE "0:"
    INDEX 01 00:46:60
  TRACK 45 AUDIO
    TITLE "10:cjc040_3427"
    INDEX 01 00:47:36
  TRACK 46 AUDIO
    TITLE "0:"
    INDEX 01 00:48:42
  TRACK 47 AUDIO
    TITLE "11:cjc040_3428"
    INDEX 01 00:49:20
  TRACK 48 AUDIO
    TITLE "0:"
    INDEX 01 00:50:35
  TRACK 49 AUDIO
    TITLE "10:cjc040_3429"
    INDEX 01 00:51:16
  TRACK 50 AUDIO
    TITLE "0:"
    INDEX 01 00:52:36
  TRACK 51 AUDIO
    TITLE "11:cjc040_3430"
    INDEX 01 00:53:15
  TRACK 52 AUDIO
    TITLE "0:"
    INDEX 01 00:55:36
  TRACK 53 AUDIO
    TITLE "10:cjc040_3431"
    INDEX 01 00:56:16
  TRACK 54 AUDIO
    TITLE "0:"
    INDEX 01 00:57:33
  TRACK 55 AUDIO
    TITLE "11:cjc040_3432"
    INDEX 01 00:58:05
  TRACK 56 AUDIO
    TITLE "0:"
    INDEX 01 01:01:27
  TRACK 57 AUDIO
    TITLE "10:cjc040_3433"
    INDEX 01 01:02:05
  TRACK 58 AUDIO
    TITLE "0:"
    INDEX 01 01:03:31
  TRACK 59 AUDIO
    TITLE "11:cjc040_3434"
    INDEX 01 01:04:07
  TRACK 60 AUDIO
    TITLE "0:"
    INDEX 01 01:06:24
  TRACK 61 AUDIO
    TITLE "10:cjc040_3435"
    INDEX 01 01:06:73
  TRACK 62 AUDIO
    TITLE "0:"
    INDEX 01 01:08:33
  TRACK 63 AUDIO
    TITLE "11:cjc040_3436"
    INDEX 01 01:09:10
  TRACK 64 AUDIO
    TITLE "0:"
    INDEX 01 01:10:39
  TRACK 65 AUDIO
    TITLE "10:cjc040_3437"
    INDEX 01 01:11:21
  TRACK 66 AUDIO
    TITLE "0:"
    INDEX 01 01:12:28
  TRACK 67 AUDIO
    TITLE "11:cjc040_3438"
    INDEX 01 01:13:00
  TRACK 68 AUDIO
    TITLE "0:"
    INDEX 01 01:14:19
  TRACK 69 AUDIO
    TITLE "10:cjc040_3439"
    INDEX 01 01:14:70
  TRACK 70 AUDIO
    TITLE "0:"
    INDEX 01 01:15:72
  TRACK 71 AUDIO
    TITLE "11:cjc040_3440"
    INDEX 01 01:16:56
  TRACK 72 AUDIO
    TITLE "0:"
    INDEX 01 01:19:62
